<?xml version="1.0" encoding="utf-8"?>
<!-- Generator: Adobe Illustrator 21.1.0, SVG Export Plug-In . SVG Version: 6.00 Build 0)  -->
<svg version="1.1" id="Layer_1" xmlns="http://www.w3.org/2000/svg" xmlns:xlink="http://www.w3.org/1999/xlink" x="0px" y="0px"
	 viewBox="0 0 296 115" style="enable-background:new 0 0 296 115;" xml:space="preserve">
<style type="text/css">
	.st0{fill:#FFFFFF;}
	.st1{fill:#C0D72F;}
	.st2{opacity:0.96;fill:#FFFFFF;enable-background:new    ;}
	.st3{opacity:0.96;fill:#C0D72F;enable-background:new    ;}
	.st4{font-family:'Tahoma';}
	.st5{font-size:5.799px;}
</style>
<path class="st0" d="M16.4,49.7c1.7,1.9,3.8,3.4,6.2,4.4s5.1,1.5,8,1.5s5.5-0.5,7.9-1.5s4.5-2.5,6.2-4.4s3.1-4.2,4.1-7
	c1-2.7,1.5-5.8,1.5-9.3v-1.8c0-3.4-0.5-6.5-1.5-9.3c-1-2.7-2.3-5.1-4.1-7c-1.7-1.9-3.8-3.4-6.2-4.4s-5.1-1.5-7.9-1.5
	c-2.9,0-5.6,0.5-8,1.5s-4.5,2.5-6.2,4.4s-3.1,4.2-4.1,7c-1,2.7-1.4,5.8-1.4,9.3v1.8c0,3.4,0.5,6.5,1.5,9.3
	C13.3,45.5,14.6,47.8,16.4,49.7z M21.9,31.6c0-4.5,0.7-7.9,2.1-10.2s3.6-3.5,6.5-3.5c2.8,0,4.9,1.2,6.4,3.5s2.2,5.7,2.2,10.2v1.9
	c0,4.4-0.7,7.8-2.2,10.2s-3.6,3.5-6.4,3.5c-2.9,0-5.1-1.2-6.5-3.6c-1.5-2.4-2.2-5.8-2.2-10.2L21.9,31.6L21.9,31.6z"/>
<path class="st0" d="M73.4,55.7c2.1,0,4-0.4,5.6-1.3s3-2.1,4.1-3.6s1.9-3.3,2.5-5.4s0.8-4.3,0.8-6.8V38c0-2.5-0.3-4.8-0.9-6.9
	s-1.4-3.9-2.5-5.4s-2.5-2.6-4.1-3.4s-3.5-1.2-5.6-1.2c-1.8,0-3.3,0.3-4.5,1c-1.3,0.6-2.4,1.6-3.3,2.7l-0.3-3.1h-9.7v56.2h10.4V52.4
	c0.9,1.1,2,1.9,3.2,2.5S71.8,55.7,73.4,55.7z M65.9,44.8V31.6c0.4-0.9,1-1.6,1.8-2s1.8-0.7,3.1-0.7c0.9,0,1.8,0.2,2.4,0.7
	c0.7,0.4,1.2,1.1,1.6,1.8c0.4,0.8,0.7,1.7,0.9,2.8s0.3,2.3,0.3,3.6v0.6c0,1.3-0.1,2.4-0.2,3.5c-0.2,1.1-0.4,2.1-0.9,2.9
	c-0.4,0.8-0.9,1.5-1.6,1.9c-0.7,0.5-1.5,0.7-2.5,0.7c-1.3,0-2.4-0.2-3.2-0.7C66.9,46.4,66.3,45.7,65.9,44.8z"/>
<path class="st0" d="M92.7,13.3v8.3h-4.3v7.2h4.3v16.6c0,1.8,0.2,3.4,0.7,4.7s1.1,2.4,2,3.2s2,1.4,3.3,1.8s2.8,0.6,4.5,0.6
	c1.1,0,2.1-0.1,3.1-0.2c0.9-0.2,1.9-0.4,2.8-0.7v-7.5c-0.4,0.1-0.7,0.1-1.1,0.1s-0.9,0-1.5,0s-1.2-0.1-1.6-0.2s-0.8-0.3-1-0.5
	c-0.3-0.3-0.4-0.6-0.6-1c-0.1-0.4-0.2-1-0.2-1.6V28.8h5.5v-7.2h-5.5v-8.3C103.1,13.3,92.7,13.3,92.7,13.3z"/>
<rect x="113.3" y="21.6" class="st0" width="10.5" height="33.5"/>
<path class="st0" d="M114.3,9.3c-0.5,0.5-0.9,1-1.2,1.6c-0.3,0.6-0.4,1.3-0.4,2s0.1,1.4,0.4,2s0.7,1.2,1.2,1.6
	c0.5,0.5,1.1,0.8,1.8,1.1c0.7,0.2,1.5,0.4,2.4,0.4s1.6-0.1,2.4-0.4c0.7-0.2,1.3-0.6,1.8-1.1s0.9-1,1.2-1.6c0.3-0.6,0.4-1.3,0.4-2
	s-0.1-1.4-0.4-2s-0.7-1.2-1.2-1.6c-0.2-0.2-0.4-0.3-0.7-0.5h-7C114.7,9,114.5,9.1,114.3,9.3z"/>
<path class="st0" d="M118.5,7.9c-0.9,0-1.7,0.1-2.4,0.4c-0.4,0.1-0.8,0.3-1.2,0.6h7c-0.4-0.2-0.7-0.4-1.2-0.6
	C120.1,8,119.3,7.9,118.5,7.9z"/>
<path class="st0" d="M178.8,55V34c0-2.4-0.3-4.5-0.8-6.1c-0.5-1.7-1.2-3-2.2-4c-0.9-1-2-1.8-3.3-2.2c-1.3-0.4-2.7-0.7-4.2-0.7
	c-2.2,0-4.2,0.4-5.8,1.3s-3,2.1-4.1,3.7c-0.8-1.8-1.9-3.1-3.4-3.9s-3.2-1.2-5.2-1.2c-2.1,0-3.9,0.4-5.5,1.2c-1.6,0.8-2.9,1.9-4,3.3
	l-0.3-3.9h-9.8V55h10.4V31.7c0.5-0.9,1.1-1.5,1.9-2s1.7-0.7,2.7-0.7c0.6,0,1.2,0.1,1.7,0.2s0.9,0.4,1.3,0.7c0.3,0.4,0.6,0.9,0.8,1.5
	c0.2,0.7,0.3,1.5,0.3,2.6v21h10.5V32.7c0-0.2,0-0.3,0-0.5s0-0.3,0-0.5c0.5-0.9,1.1-1.5,1.9-2s1.7-0.7,2.8-0.7c0.6,0,1.2,0.1,1.7,0.2
	s0.9,0.4,1.3,0.7c0.3,0.4,0.6,0.9,0.8,1.5c0.2,0.6,0.3,1.5,0.3,2.5V55H178.8z"/>
<polygon class="st1" points="183.4,49.5 183.4,54.8 193.3,54.8 193.3,10.2 183.4,10.2 183.4,15.6 186,15.6 186,49.5 "/>
<polygon class="st1" points="205,15.6 205,10.2 195.1,10.2 195.1,54.8 205,54.8 205,49.5 202.4,49.5 202.4,15.6 "/>
<path class="st0" d="M232.5,46.2c-0.5,0.4-1.1,0.7-1.8,1c-0.7,0.2-1.6,0.4-2.6,0.4c-1.3,0-2.4-0.1-3.4-0.4c-1-0.2-1.8-0.6-2.5-1.2
	s-1.2-1.3-1.5-2.2c-0.4-0.9-0.5-2-0.5-3.3h-10.9c0,1.8,0.3,3.4,0.8,4.8s1.2,2.7,2.1,3.9c0.9,1.1,1.9,2.1,3.1,2.9s2.5,1.5,3.9,2
	s2.8,0.9,4.4,1.2c1.5,0.3,3.1,0.4,4.6,0.4c2.5,0,4.8-0.3,6.9-0.8c2.1-0.6,3.8-1.4,5.3-2.4c1.5-1.1,2.6-2.4,3.4-4s1.2-3.4,1.2-5.4
	c0-1.9-0.3-3.6-1-5.1s-1.6-2.9-2.9-4.1s-2.9-2.3-4.7-3.2c-1.9-0.9-4-1.8-6.4-2.5c-1.3-0.4-2.4-0.8-3.4-1.3c-1-0.4-1.9-0.9-2.6-1.4
	s-1.3-1-1.6-1.5c-0.4-0.5-0.6-1.2-0.6-1.8c0-0.6,0.1-1.2,0.4-1.7s0.7-1,1.2-1.5c0.5-0.4,1.2-0.8,2-1s1.7-0.4,2.7-0.4
	c1.1,0,2,0.1,2.7,0.4c0.8,0.3,1.4,0.7,1.9,1.2s0.9,1.1,1.2,1.8c0.3,0.7,0.4,1.5,0.4,2.3h10.8c0-2.1-0.4-4-1.3-5.8
	c-0.8-1.7-2-3.2-3.5-4.4s-3.3-2.2-5.3-2.8c-2.1-0.7-4.3-1-6.8-1s-4.8,0.3-6.9,0.9s-3.9,1.4-5.5,2.5s-2.8,2.4-3.6,4
	c-0.9,1.6-1.3,3.3-1.3,5.2c0,2,0.4,3.8,1.3,5.3s2,2.8,3.4,4c1.4,1.1,3.1,2.1,4.9,2.9s3.7,1.6,5.7,2.2c1.7,0.6,3.1,1.1,4.1,1.6
	s1.9,1,2.4,1.5c0.6,0.5,1,1,1.2,1.6s0.3,1.2,0.3,1.9c0,0.6-0.1,1.2-0.3,1.7C233.3,45.3,233,45.8,232.5,46.2z"/>
<polygon class="st0" points="282.6,18.4 282.6,10 251.6,10 251.6,55 282.6,55 282.6,46.7 262.4,46.7 262.4,36 279.5,36 279.5,27.9 
	262.4,27.9 262.4,18.4 "/>
<rect x="68.7" y="58.1" class="st1" width="213.9" height="17"/>
<rect x="11.2" y="58.1" class="st1" width="41.3" height="17"/>
<path class="st2" d="M165.5,87.5c-0.7-3.2-2.7-5.4-5.8-6.6c-1.9-0.7-3.9-0.8-5.8-0.5c-4.3,0.6-7.4,3.7-8,8c-0.4,2.6-0.4,5.3-0.1,7.9
	c0.3,2.5,1.3,4.7,3.3,6.4c1.9,1.6,4.2,2.2,6.6,2.2c0.7,0,1.4-0.1,2.1-0.2c3.8-0.6,6.8-3.2,7.7-7C166.2,94.3,166.2,90.9,165.5,87.5z
	 M159.5,96.8c-0.6,1.8-2,2.7-3.8,2.7c-1.9,0-3.2-1.1-3.7-2.9c-0.2-0.9-0.3-1.8-0.4-2.7c0-1.7-0.1-3.3,0.3-5c0.4-1.8,1.6-3,3.1-3.2
	c2.5-0.3,4.2,1,4.7,3.5c0.2,1.1,0.2,2.2,0.2,3.4C159.9,93.9,160,95.4,159.5,96.8z"/>
<path class="st2" d="M132.9,92.5c0-2.5,0-5,0-7.6c0-0.4-0.1-0.5-0.5-0.5c-0.9,0-1.8,0-2.7,0c-0.3,0-0.3-0.1-0.3-0.4
	c0-1.2,0-2.4,0-3.6c0-0.2,0-0.3,0.3-0.3c4.1,0,8.3,0,12.4,0c0.3,0,0.3,0.1,0.3,0.3c0,1.2,0,2.5,0,3.7c0,0.3-0.1,0.3-0.3,0.3
	c-0.9,0-1.9,0-2.8,0c-0.3,0-0.4,0.1-0.4,0.4c0,5.1,0,10.2,0,15.3c0,0.3,0.1,0.4,0.4,0.4c0.9,0,1.8,0,2.7,0c0.3,0,0.4,0,0.4,0.4
	c0,1.2,0,2.4,0,3.6c0,0.3-0.1,0.3-0.3,0.3c-4.1,0-8.3,0-12.4,0c-0.3,0-0.3-0.1-0.3-0.3c0-1.2,0-2.4,0-3.6c0-0.3,0.1-0.4,0.4-0.4
	c0.9,0,1.8,0,2.7,0c0.3,0,0.4-0.1,0.4-0.4C132.9,97.6,132.9,95.1,132.9,92.5z"/>
<path class="st3" d="M124.5,104.9c-0.5,0-0.9,0-1.3,0c-1.9,0-3.8,0-5.7,0c-0.3,0-0.4-0.1-0.6-0.3c-1.3-2.1-2.6-4.2-3.9-6.4
	c-0.2-0.3-0.2-0.6-0.2-0.9c0-3.3,0-6.6,0-9.9c0-0.3,0.1-0.5,0.2-0.8c1.2-2,2.4-4,3.6-6.1c0.1-0.2,0.2-0.3,0.4-0.3c2.4,0,4.7,0,7.1,0
	c0,0.2-0.1,0.2-0.1,0.3c-2.6,3.8-5.1,7.6-7.7,11.4c-0.2,0.3-0.2,0.5,0,0.7c2.7,4,5.4,8,8.1,12C124.4,104.7,124.4,104.7,124.5,104.9z
	"/>
<path class="st3" d="M99.4,80.2c0.5,0,0.9,0,1.3,0c1.9,0,3.8,0,5.7,0c0.3,0,0.5,0.1,0.6,0.4c1.2,2.1,2.4,4.1,3.6,6.1
	c0.1,0.2,0.1,0.3,0.1,0.5c0,3.4,0,6.9,0,10.3c0,0.2,0,0.4-0.2,0.6c-1.3,2.2-2.7,4.3-4,6.5c-0.1,0.2-0.2,0.3-0.5,0.3
	c-2.3,0-4.6,0-6.9,0c0,0-0.1,0-0.2,0c0.5-0.8,1.1-1.6,1.6-2.4c2.2-3.3,4.5-6.6,6.7-9.9c0.2-0.3,0.1-0.4,0-0.7
	c-2.6-3.8-5.2-7.6-7.7-11.4C99.5,80.4,99.5,80.4,99.4,80.2z"/>
<path class="st2" d="M256.5,102.9c-0.6,0.9-1.4,1.5-2.4,1.7c-1.9,0.5-3.7-0.2-4.8-1.8c-1.7-2.4-1.4-6.4,0.7-8.4
	c1.4-1.3,3.5-1.7,5.1-0.8c0.6,0.3,1.1,0.8,1.5,1.5c0-0.5,0.1-0.9,0.1-1.3c0-0.3,0.1-0.4,0.3-0.4c0.4,0,0.8,0,1.2,0
	c0.2,0,0.3,0.1,0.3,0.3c-0.2,3.4,0,6.8-0.1,10.1c0,0.8-0.1,1.6-0.3,2.4c-0.5,1.7-1.6,2.8-3.2,3.2c-1.8,0.5-3.6,0.3-5.3-0.4
	c-0.3-0.2-0.5-0.3-0.3-0.7c0.2-0.4,0.3-0.8,0.4-1.2c1.2,0.7,2.5,1,3.9,0.8c1.6-0.2,2.5-1,2.8-2.6c0.1-0.3,0.1-0.7,0.1-1.1
	C256.6,104,256.5,103.5,256.5,102.9z M256.5,99.1c0-0.4,0-0.7,0-1.1c-0.1-1.5-1-2.7-2.3-3c-1.4-0.3-2.7,0.3-3.4,1.7
	c-0.7,1.6-0.8,3.2-0.1,4.8c0.6,1.3,1.9,2,3.2,1.8c1.4-0.2,2.4-1.3,2.5-2.7C256.6,100,256.5,99.5,256.5,99.1z"/>
<path class="st2" d="M200.7,95.3c1.2-1.9,3.5-2.6,5.3-1.6c1.4,0.7,1.9,2,2,3.4c0.2,2.5,0,5,0.1,7.5c0,0.2-0.1,0.3-0.3,0.3
	c-0.5,0-0.9,0-1.4,0c-0.3,0-0.4-0.1-0.4-0.4c0-2,0-4,0-6c0-0.5,0-1.1-0.2-1.6c-0.6-2.3-3.1-2.3-4.2-1.2c-0.7,0.6-1,1.4-1,2.3
	c0,2.1,0,4.2,0,6.3c0,0.4-0.1,0.5-0.5,0.5s-0.8,0-1.1,0s-0.5-0.1-0.5-0.4c0-0.8,0-1.7,0-2.5c0-4.4,0-8.9,0-13.3
	c0-0.4,0.1-0.5,0.5-0.5c0.5,0.1,1.2-0.2,1.5,0.1c0.2,0.3,0.1,0.9,0.1,1.4c0,1.7,0,3.3,0,5C200.7,94.9,200.7,95,200.7,95.3z"/>
<path class="st2" d="M231.9,98.8c0,2.1-0.4,3.7-1.8,4.9c-1.6,1.5-3.5,1.8-5.6,1.1c-2-0.7-3-2.3-3.3-4.3c-0.3-1.6-0.1-3.2,0.7-4.7
	c1.1-1.9,3.2-2.9,5.4-2.6s3.9,1.8,4.4,4.1C231.8,97.9,231.9,98.5,231.9,98.8z M229.8,99.2c0-0.9-0.2-1.7-0.5-2.5
	c-0.5-1.1-1.4-1.9-2.7-1.9s-2.3,0.6-2.8,1.8c-0.8,1.6-0.8,3.3,0,5c0.5,1.2,1.5,1.9,2.8,1.9s2.2-0.7,2.8-1.8
	C229.6,100.9,229.8,100.1,229.8,99.2z"/>
<path class="st2" d="M247.6,99.1c0,2-0.6,3.7-2.2,5c-2.9,2.1-7.7,1.2-8.5-3.6c-0.3-1.6-0.1-3.2,0.7-4.7c1.1-1.9,3.2-2.9,5.4-2.6
	s3.9,1.9,4.4,4.1C247.6,97.9,247.7,98.5,247.6,99.1z M238.9,99.2c0,0.8,0.1,1.6,0.5,2.4c0.6,1.2,1.4,1.9,2.8,2
	c1.3,0,2.2-0.6,2.8-1.7c0.9-1.8,0.9-3.7-0.1-5.5c-1.1-2-3.8-2-5.1-0.1C239.1,97.1,238.9,98.1,238.9,99.2z"/>
<path class="st2" d="M269.8,99.6c-1.2,0-2.4,0-3.6,0c-0.3,0-0.4,0.1-0.3,0.4c0.2,2.2,1.6,3.5,3.9,3.5c1,0,1.9-0.1,2.8-0.5
	c0.2-0.1,0.3,0,0.3,0.2c0,0.1,0,0.1,0,0.2c0.3,1.2,0.3,1.2-0.9,1.5c-1.2,0.3-2.5,0.4-3.7,0.2c-2.1-0.3-3.5-1.5-4.1-3.5
	c-0.6-2.1-0.4-4.1,0.7-5.9c1.7-2.8,5.4-2.8,7.1-1.3c1,0.9,1.4,2,1.6,3.3c0.1,0.6,0.1,1.2,0.1,1.7c0,0.2-0.1,0.3-0.4,0.3
	C272.2,99.6,271,99.6,269.8,99.6z M268.9,98.1c0.6,0,1.3,0,1.9,0c1.2,0,1.2,0,0.9-1.2c-0.5-2-2.2-2.4-3.6-1.9
	c-1.1,0.4-2.1,1.8-2.1,2.9c0,0.3,0.1,0.3,0.3,0.3C267.2,98.1,268,98.1,268.9,98.1z"/>
<path class="st2" d="M184.2,99.6c-1.2,0-2.4,0-3.6,0c-0.3,0-0.3,0.1-0.3,0.4c0.2,2.2,1.5,3.5,3.7,3.5c1,0,2-0.1,2.9-0.5
	c0.3-0.1,0.3,0,0.4,0.2c0,0.1,0.1,0.3,0.1,0.4c0.2,0.9,0.2,0.9-0.6,1.1c-1.3,0.4-2.7,0.5-4,0.3c-2.1-0.3-3.5-1.5-4.1-3.5
	s-0.4-4,0.7-5.9c1.5-2.4,4.5-2.7,6.3-1.8c1.3,0.7,2,1.9,2.3,3.3c0.2,0.7,0.2,1.4,0.2,2.1c0,0.3-0.1,0.5-0.5,0.5
	C186.6,99.5,185.4,99.6,184.2,99.6z M183.3,98.1c0.6,0,1.3,0,1.9,0c1.2,0,1.2,0,0.9-1.2c-0.5-2-2.2-2.4-3.6-1.9
	c-1.1,0.4-2.1,1.8-2.1,2.9c0,0.3,0.1,0.3,0.3,0.3C181.6,98.1,182.5,98.1,183.3,98.1z"/>
<path class="st2" d="M212.1,95.2c0.9-1.2,1.9-1.9,3.4-1.9c2.2-0.1,3.7,1.1,4.1,3.2c0.1,0.5,0.1,0.9,0.1,1.4c0,2.2,0,4.4,0,6.5
	c0,0.4-0.1,0.5-0.5,0.5s-0.8,0-1.1,0s-0.5-0.1-0.5-0.4c0-2,0-4,0-5.9c0-0.5,0-1.1-0.2-1.6c-0.5-1.8-2.4-2.5-3.9-1.4
	c-0.9,0.6-1.3,1.6-1.3,2.7c0,2.1,0,4.1,0,6.2c0,0.5-0.1,0.6-0.6,0.5c-0.4,0-0.8,0-1.2,0c-0.2,0-0.3-0.1-0.3-0.3v-0.1
	c0-3.6,0.1-7.1-0.1-10.7c0-0.2,0.1-0.3,0.3-0.3c0.4,0,0.8,0,1.3,0c0.2,0,0.3,0.1,0.3,0.3C212.1,94.3,212.1,94.7,212.1,95.2z"/>
<path class="st2" d="M274.8,102.7c0.7,0.4,1.4,0.7,2.2,0.8c0.5,0.1,1,0,1.5-0.1c0.6-0.2,1-0.6,1.1-1.3c0.1-0.6-0.1-1.1-0.6-1.5
	c-0.4-0.4-1-0.6-1.5-0.8c-0.5-0.2-1-0.4-1.5-0.8c-2.2-1.5-1.6-4.3,0.4-5.3c1.5-0.8,3.1-0.6,4.6,0.1c0.2,0.1,0.2,0.2,0.2,0.4
	c-0.1,0.3-0.2,0.6-0.3,1c-0.1,0.2-0.2,0.3-0.4,0.1c-0.8-0.4-1.6-0.6-2.4-0.5s-1.3,0.6-1.4,1.3c-0.1,0.6,0.2,1.2,0.8,1.5
	c0.4,0.2,0.8,0.4,1.2,0.6c0.4,0.2,0.9,0.4,1.3,0.6c1.2,0.7,1.8,1.8,1.7,3.2c-0.2,1.5-1.1,2.4-2.5,2.8c-1.5,0.4-3,0.3-4.5-0.3
	c-0.3-0.1-0.4-0.3-0.2-0.6C274.6,103.5,274.7,103.1,274.8,102.7z"/>
<path class="st2" d="M194.4,105.1c-3.3,0-5.5-2.2-5.6-5.6c0-2,0.5-3.7,2.2-4.9c2-1.5,4.1-1.5,6.4-0.8c0.2,0.1,0.3,0.2,0.2,0.4
	c-0.1,0.3-0.2,0.7-0.3,1s-0.2,0.3-0.4,0.2c-1-0.4-2-0.5-3-0.3c-1.7,0.3-2.8,1.8-3,3.6c-0.1,0.8,0,1.5,0.3,2.3
	c0.7,1.9,2.5,2.8,4.6,2.3c0.4-0.1,0.8-0.2,1.1-0.3c0.2-0.1,0.3-0.1,0.4,0.2c0.1,0.3,0.1,0.7,0.2,1s0,0.4-0.3,0.5
	C196.3,104.9,195.4,105.1,194.4,105.1z"/>
<path class="st2" d="M173.4,98.7c0-1.1,0-2.2,0-3.2c0-0.3-0.1-0.4-0.4-0.4c-0.4,0-0.7,0-1.1,0c-0.2,0-0.3-0.1-0.3-0.3l0,0
	c0-1.3,0-1.3,1.2-1.2c0.5,0,0.6-0.1,0.5-0.6c0-0.6,0-1.2,0-1.8c0-0.2,0-0.4,0.3-0.4c0.5-0.1,0.9-0.2,1.3-0.4c0.3-0.1,0.3,0,0.3,0.2
	c0,0.9,0,1.7,0,2.6c0,0.3,0.1,0.4,0.3,0.4c0.7,0,1.5,0,2.2,0c0.2,0,0.3,0.1,0.3,0.3c0,0.3,0,0.7,0,1c0,0.2-0.1,0.3-0.3,0.3
	c-0.7,0-1.5,0-2.2,0c-0.3,0-0.4,0-0.4,0.4c0,1.9,0,3.8,0,5.8c0,0.4,0,0.7,0.2,1.1c0.2,0.7,0.6,1,1.4,1c0.1,0,0.2,0,0.4,0
	c0.3,0,0.7-0.2,0.8,0c0.2,0.4,0.1,0.9,0.1,1.4c0,0.1-0.1,0.2-0.2,0.2c-0.9,0.2-1.7,0.3-2.6,0c-1.1-0.3-1.6-1.2-1.8-2.2
	c-0.1-0.4-0.1-0.8-0.1-1.2C173.4,100.5,173.4,99.6,173.4,98.7z"/>
<path class="st2" d="M233.3,96.5c0-2.6,0-5.2,0-7.8c0-0.4,0.1-0.5,0.5-0.5s0.7,0,1.1,0c0.3,0,0.5,0.1,0.4,0.4c0,2.7,0,5.5,0,8.2
	c0,2.5,0,5.1,0,7.6c0,0.4-0.1,0.5-0.4,0.4c-0.4,0-0.7,0-1.1,0c-0.5,0.1-0.5-0.1-0.5-0.5C233.3,101.7,233.3,99.1,233.3,96.5z"/>
<path class="st2" d="M260.6,99.2c0-1.7,0-3.4,0-5.1c0-0.4,0.1-0.5,0.5-0.5s0.8,0,1.1,0c0.3,0,0.4,0.1,0.4,0.4c0,0.9,0,1.9,0,2.8
	c0,2.6,0,5.1,0,7.7c0,0.4-0.1,0.5-0.4,0.4c-0.4,0-0.7,0-1.1,0s-0.5-0.1-0.5-0.5C260.6,102.6,260.6,100.9,260.6,99.2z"/>
<path class="st2" d="M126.1,94.8c-0.7,0-1.3,0-2,0c-0.2,0-0.3-0.1-0.3-0.3c0-1.3,0-2.6,0-4c0-0.3,0.1-0.3,0.3-0.3c1.3,0,2.6,0,3.9,0
	c0.2,0,0.3,0.1,0.3,0.3c0,1.3,0,2.6,0,3.9c0,0.3-0.1,0.3-0.4,0.3C127.3,94.8,126.7,94.8,126.1,94.8z"/>
<path class="st2" d="M261.6,89c0.8,0,1.3,0.5,1.3,1.3s-0.5,1.3-1.3,1.3c-0.7,0-1.2-0.5-1.2-1.2C260.3,89.6,260.8,89,261.6,89z"/>
<text transform="matrix(1.5074 0 0 1 163.8096 82.1895)" class="st0 st4 st5">TM</text>
<text transform="matrix(1.5074 0 0 1 281.7108 8.4)" class="st0 st4 st5">TM</text>
</svg>
