<?xml version="1.0" encoding="utf-8"?>
<!-- Generator: Adobe Illustrator 21.1.0, SVG Export Plug-In . SVG Version: 6.00 Build 0)  -->
<svg version="1.1" id="Layer_1" xmlns="http://www.w3.org/2000/svg" xmlns:xlink="http://www.w3.org/1999/xlink" x="0px" y="0px"
	 viewBox="0 0 79.1 25" style="enable-background:new 0 0 79.1 25;" xml:space="preserve">
<style type="text/css">
	.st0{fill:#1362AB;}
	.st1{fill:#FFFFFF;}
	.st2{fill:#C9D42E;}
</style>
<g>
	<path class="st0" d="M3.6,15.4c0.5,0.5,1,0.9,1.7,1.2C6,16.9,6.7,17,7.5,17s1.5-0.1,2.2-0.4s1.2-0.7,1.7-1.2s0.8-1.2,1.1-1.9
		c0.3-0.7,0.4-1.6,0.4-2.5v-0.5c0-0.9-0.1-1.8-0.4-2.5s-0.6-1.4-1.1-1.9s-1-0.9-1.7-1.2S8.3,4.5,7.5,4.5S6,4.6,5.3,4.9
		S4.1,5.6,3.6,6.1S2.8,7.3,2.5,8c-0.3,0.7-0.4,1.6-0.4,2.5V11c0,0.9,0.1,1.8,0.4,2.5C2.7,14.2,3.1,14.8,3.6,15.4z M5.1,10.4
		c0-1.2,0.2-2.1,0.6-2.8c0.4-0.6,1-0.9,1.8-0.9S8.8,7,9.2,7.6s0.6,1.6,0.6,2.8v0.5c0,1.2-0.2,2.1-0.6,2.8c-0.4,0.6-1,1-1.7,1
		c-0.8,0-1.4-0.3-1.8-1c-0.4-0.6-0.6-1.6-0.6-2.8V10.4z"/>
	<path class="st0" d="M19.1,17c0.6,0,1.1-0.1,1.5-0.4c0.4-0.2,0.8-0.6,1.1-1s0.5-0.9,0.7-1.5s0.2-1.2,0.2-1.8v-0.2
		c0-0.7-0.1-1.3-0.2-1.9c-0.2-0.6-0.4-1.1-0.7-1.5S21,8,20.6,7.8s-1-0.3-1.5-0.3s-0.9,0.1-1.2,0.3C17.6,8,17.2,8.2,17,8.5l-0.1-0.8
		h-2.7V23H17v-7c0.3,0.3,0.5,0.5,0.9,0.7C18.3,16.9,18.7,17,19.1,17z M17,14v-3.6c0.1-0.2,0.3-0.4,0.5-0.5s0.5-0.2,0.9-0.2
		c0.3,0,0.5,0.1,0.7,0.2s0.3,0.3,0.4,0.5s0.2,0.5,0.2,0.8c0.1,0.3,0.1,0.6,0.1,1v0.2c0,0.3,0,0.7-0.1,1c0,0.3-0.1,0.6-0.2,0.8
		c-0.1,0.2-0.3,0.4-0.4,0.5c-0.2,0.1-0.4,0.2-0.7,0.2c-0.4,0-0.6-0.1-0.9-0.2C17.3,14.4,17.2,14.3,17,14z"/>
	<path class="st0" d="M24.4,5.4v2.3h-1.2v2h1.2v4.5c0,0.5,0.1,0.9,0.2,1.3s0.3,0.6,0.6,0.9c0.2,0.2,0.5,0.4,0.9,0.5
		c0.4,0.1,0.8,0.2,1.2,0.2c0.3,0,0.6,0,0.8-0.1c0.3,0,0.5-0.1,0.8-0.2v-2c-0.1,0-0.2,0-0.3,0s-0.2,0-0.4,0s-0.3,0-0.4,0
		c-0.1,0-0.2-0.1-0.3-0.1c-0.1-0.1-0.1-0.2-0.2-0.3c0-0.1,0-0.3,0-0.4V9.8h1.5v-2h-1.5V5.5L24.4,5.4L24.4,5.4z"/>
	<rect x="30" y="7.7" class="st0" width="2.8" height="9.1"/>
	<path class="st0" d="M30.2,4.3c-0.1,0.1-0.2,0.3-0.3,0.4c-0.1,0.2-0.1,0.4-0.1,0.6s0,0.4,0.1,0.6s0.2,0.3,0.3,0.4s0.3,0.2,0.5,0.3
		s0.4,0.1,0.6,0.1c0.2,0,0.4,0,0.6-0.1c0.2-0.1,0.4-0.2,0.5-0.3s0.2-0.3,0.3-0.4c0.1-0.2,0.1-0.4,0.1-0.6s0-0.4-0.1-0.6
		s-0.2-0.3-0.3-0.4c-0.1,0-0.1-0.1-0.2-0.1h-1.9C30.4,4.3,30.3,4.3,30.2,4.3z"/>
	<path class="st1" d="M31.4,4c-0.2,0-0.4,0-0.6,0.1c-0.1,0-0.2,0.1-0.3,0.2h1.9c-0.1-0.1-0.2-0.1-0.3-0.2C31.8,4,31.6,4,31.4,4z"/>
	<path class="st0" d="M47.8,16.8v-5.7c0-0.7-0.1-1.2-0.2-1.7S47.3,8.6,47,8.3s-0.6-0.5-0.9-0.6S45.4,7.5,45,7.5
		c-0.6,0-1.1,0.1-1.6,0.4c-0.4,0.2-0.8,0.6-1.1,1c-0.2-0.5-0.5-0.8-0.9-1S40.5,7.6,40,7.6c-0.6,0-1.1,0.1-1.5,0.3s-0.8,0.5-1.1,0.9
		l-0.1-1.1h-2.7v9.1h2.8v-6.3c0.1-0.2,0.3-0.4,0.5-0.6c0.2-0.1,0.5-0.2,0.7-0.2s0.3,0,0.5,0.1c0.1,0,0.3,0.1,0.3,0.2
		c0.1,0.1,0.2,0.2,0.2,0.4c0,0.2,0.1,0.4,0.1,0.7v5.7h2.8v-6.1v-0.1v-0.1c0.1-0.2,0.3-0.4,0.5-0.6c0.2-0.1,0.5-0.2,0.7-0.2
		s0.3,0,0.5,0.1c0.1,0,0.3,0.1,0.3,0.2c0.1,0.1,0.2,0.2,0.2,0.4c0.1,0.2,0.1,0.4,0.1,0.7v5.7L47.8,16.8L47.8,16.8z"/>
	<polygon class="st2" points="49.1,15.3 49.1,16.7 51.8,16.7 51.8,4.6 49.1,4.6 49.1,6 49.8,6 49.8,15.3 	"/>
	<polygon class="st2" points="55.2,6 55.2,4.6 52.5,4.6 52.5,16.7 55.2,16.7 55.2,15.3 54.5,15.3 54.5,6 	"/>
	<path class="st0" d="M62.4,14.4c-0.1,0.1-0.3,0.2-0.5,0.3c-0.2,0.1-0.4,0.1-0.7,0.1c-0.3,0-0.7,0-0.9-0.1c-0.3-0.1-0.5-0.2-0.7-0.3
		c-0.2-0.2-0.3-0.3-0.4-0.6s-0.1-0.5-0.1-0.9h-3c0,0.5,0.1,0.9,0.2,1.3s0.3,0.7,0.6,1.1c0.2,0.3,0.5,0.6,0.9,0.8
		c0.3,0.2,0.7,0.4,1.1,0.6c0.4,0.1,0.8,0.3,1.2,0.3c0.4,0.1,0.8,0.1,1.3,0.1c0.7,0,1.3-0.1,1.9-0.2c0.6-0.2,1-0.4,1.4-0.7
		c0.4-0.3,0.7-0.7,0.9-1.1c0.2-0.4,0.3-0.9,0.3-1.5c0-0.5-0.1-1-0.3-1.4c-0.2-0.4-0.4-0.8-0.8-1.1c-0.4-0.3-0.8-0.6-1.3-0.9
		s-1.1-0.5-1.7-0.7c-0.3-0.1-0.7-0.2-0.9-0.3c-0.3-0.1-0.5-0.2-0.7-0.4c-0.2-0.1-0.3-0.3-0.4-0.4s-0.2-0.3-0.2-0.5s0-0.3,0.1-0.5
		C59.8,7.3,59.9,7.1,60,7c0.1-0.1,0.3-0.2,0.5-0.3s0.5-0.1,0.7-0.1c0.3,0,0.5,0,0.7,0.1s0.4,0.2,0.5,0.3s0.2,0.3,0.3,0.5
		c0.1,0.2,0.1,0.4,0.1,0.6h2.9c0-0.6-0.1-1.1-0.3-1.6c-0.2-0.5-0.5-0.9-0.9-1.2s-0.9-0.6-1.4-0.8c-0.6-0.2-1.2-0.3-1.8-0.3
		c-0.7,0-1.3,0.1-1.9,0.2c-0.6,0.2-1.1,0.4-1.5,0.7s-0.7,0.7-1,1.1s-0.4,0.9-0.4,1.4c0,0.6,0.1,1,0.3,1.4s0.5,0.8,0.9,1.1
		s0.8,0.6,1.3,0.8c0.5,0.2,1,0.4,1.6,0.6c0.5,0.2,0.8,0.3,1.1,0.4c0.3,0.1,0.5,0.3,0.7,0.4s0.3,0.3,0.3,0.4c0.1,0.2,0.1,0.3,0.1,0.5
		s0,0.3-0.1,0.5C62.7,14.2,62.6,14.3,62.4,14.4z"/>
	<polygon class="st0" points="76.1,6.8 76.1,4.5 67.6,4.5 67.6,16.8 76.1,16.8 76.1,14.5 70.6,14.5 70.6,11.6 75.2,11.6 75.2,9.4 
		70.6,9.4 70.6,6.8 	"/>
	<rect x="17.8" y="17.6" class="st2" width="58.6" height="4.6"/>
	<rect x="2.1" y="17.6" class="st2" width="11.3" height="4.6"/>
</g>
</svg>
