<?xml version="1.0" encoding="utf-8"?>
<!-- Generator: Adobe Illustrator 21.1.0, SVG Export Plug-In . SVG Version: 6.00 Build 0)  -->
<svg version="1.1" id="Layer_1" xmlns="http://www.w3.org/2000/svg" xmlns:xlink="http://www.w3.org/1999/xlink" x="0px" y="0px"
	 viewBox="0 0 79.1 25" style="enable-background:new 0 0 79.1 25;" xml:space="preserve">
<style type="text/css">
	.st0{fill:#0067B0;}
	.st1{fill:#C0D72F;}
	.st2{font-family:'Tahoma';}
	.st3{font-size:3.1298px;}
</style>
<path class="st0" d="M3.9,15.8c0.5,0.5,1,0.9,1.7,1.2s1.4,0.4,2.2,0.4S9.3,17.3,10,17s1.2-0.7,1.7-1.2s0.8-1.2,1.1-1.9
	s0.4-1.6,0.4-2.5v-0.5c0-0.9-0.1-1.8-0.4-2.5S12.2,7,11.7,6.5s-1-0.9-1.7-1.2S8.6,4.9,7.8,4.9S6.3,5,5.6,5.3S4.4,6,3.9,6.5
	S3.1,7.7,2.8,8.4S2.4,10,2.4,10.9v0.5c0,0.9,0.1,1.8,0.4,2.5C3,14.6,3.4,15.2,3.9,15.8z M5.4,10.8C5.4,9.6,5.6,8.7,6,8
	c0.4-0.6,1-0.9,1.8-0.9S9.1,7.4,9.5,8s0.6,1.6,0.6,2.8v0.5c0,1.2-0.2,2.1-0.6,2.8c-0.4,0.6-1,1-1.7,1c-0.8,0-1.4-0.3-1.8-1
	c-0.4-0.6-0.6-1.6-0.6-2.8V10.8z"/>
<path class="st0" d="M19.4,17.4c0.6,0,1.1-0.1,1.5-0.4c0.4-0.2,0.8-0.6,1.1-1c0.3-0.4,0.5-0.9,0.7-1.5s0.2-1.2,0.2-1.8v-0.2
	c0-0.7-0.1-1.3-0.2-1.9C22.5,10,22.3,9.5,22,9.1s-0.7-0.7-1.1-0.9s-1-0.3-1.5-0.3S18.5,8,18.2,8.2s-0.7,0.4-0.9,0.7l-0.1-0.8h-2.7
	v15.3h2.8v-7c0.3,0.3,0.5,0.5,0.9,0.7C18.6,17.3,19,17.4,19.4,17.4z M17.3,14.4v-3.6c0.1-0.2,0.3-0.4,0.5-0.5s0.5-0.2,0.9-0.2
	c0.3,0,0.5,0.1,0.7,0.2s0.3,0.3,0.4,0.5s0.2,0.5,0.2,0.8c0.1,0.3,0.1,0.6,0.1,1v0.2c0,0.3,0,0.7-0.1,1c0,0.3-0.1,0.6-0.2,0.8
	s-0.3,0.4-0.4,0.5c-0.2,0.1-0.4,0.2-0.7,0.2c-0.4,0-0.6-0.1-0.9-0.2C17.6,14.8,17.5,14.7,17.3,14.4z"/>
<path class="st0" d="M24.7,5.8v2.3h-1.2v2h1.2v4.5c0,0.5,0.1,0.9,0.2,1.3s0.3,0.6,0.6,0.9c0.2,0.2,0.5,0.4,0.9,0.5s0.8,0.2,1.2,0.2
	c0.3,0,0.6,0,0.8-0.1c0.3,0,0.5-0.1,0.8-0.2v-2c-0.1,0-0.2,0-0.3,0s-0.2,0-0.4,0s-0.3,0-0.4,0s-0.2-0.1-0.3-0.1
	c-0.1-0.1-0.1-0.2-0.2-0.3c0-0.1,0-0.3,0-0.4v-4.2h1.5v-2h-1.5V5.9L24.7,5.8L24.7,5.8z"/>
<rect x="30.3" y="8.1" class="st0" width="2.8" height="9.1"/>
<path class="st0" d="M30.7,4.7c-0.1,0.1-0.2,0.3-0.3,0.4c-0.1,0.2-0.1,0.4-0.1,0.6s0,0.4,0.1,0.6s0.2,0.3,0.3,0.4S31,6.9,31.2,7
	s0.4,0.1,0.6,0.1c0.2,0,0.4,0,0.6-0.1s0.4-0.2,0.5-0.3s0.2-0.3,0.3-0.4c0.1-0.2,0.1-0.4,0.1-0.6s0-0.4-0.1-0.6S33,4.8,32.9,4.7
	c-0.1,0-0.1-0.1-0.2-0.1h-1.9C30.9,4.7,30.8,4.7,30.7,4.7z"/>
<path class="st0" d="M31.7,4.4c-0.2,0-0.4,0-0.6,0.1c-0.1,0-0.2,0.1-0.3,0.2h1.9c-0.1-0.1-0.2-0.1-0.3-0.2
	C32.1,4.4,31.9,4.4,31.7,4.4z"/>
<path class="st0" d="M48.1,17.2v-5.7c0-0.7-0.1-1.2-0.2-1.7S47.6,9,47.3,8.7s-0.6-0.5-0.9-0.6c-0.3-0.1-0.7-0.2-1.1-0.2
	c-0.6,0-1.1,0.1-1.6,0.4c-0.4,0.2-0.8,0.6-1.1,1c-0.2-0.5-0.5-0.8-0.9-1S40.8,8,40.3,8c-0.6,0-1.1,0.1-1.5,0.3S38,8.8,37.7,9.2
	l-0.1-1.1h-2.7v9.1h2.8v-6.3c0.1-0.2,0.3-0.4,0.5-0.6c0.2-0.1,0.5-0.2,0.7-0.2s0.3,0,0.5,0.1c0.1,0,0.3,0.1,0.3,0.2
	c0.1,0.1,0.2,0.2,0.2,0.4s0.1,0.4,0.1,0.7v5.7h2.8v-6.1V11v-0.1c0.1-0.2,0.3-0.4,0.5-0.6c0.2-0.1,0.5-0.2,0.7-0.2s0.3,0,0.5,0.1
	c0.1,0,0.3,0.1,0.3,0.2c0.1,0.1,0.2,0.2,0.2,0.4c0.1,0.2,0.1,0.4,0.1,0.7v5.7L48.1,17.2L48.1,17.2z"/>
<polygon class="st1" points="49.4,15.7 49.4,17.1 52.1,17.1 52.1,5 49.4,5 49.4,6.4 50.1,6.4 50.1,15.7 "/>
<polygon class="st1" points="55.5,6.4 55.5,5 52.8,5 52.8,17.1 55.5,17.1 55.5,15.7 54.8,15.7 54.8,6.4 "/>
<path class="st0" d="M62.7,14.8c-0.1,0.1-0.3,0.2-0.5,0.3s-0.4,0.1-0.7,0.1s-0.7,0-0.9-0.1c-0.3-0.1-0.5-0.2-0.7-0.3
	c-0.2-0.2-0.3-0.3-0.4-0.6s-0.1-0.5-0.1-0.9h-3c0,0.5,0.1,0.9,0.2,1.3s0.3,0.7,0.6,1.1c0.2,0.3,0.5,0.6,0.9,0.8
	c0.3,0.2,0.7,0.4,1.1,0.6c0.4,0.1,0.8,0.3,1.2,0.3c0.4,0.1,0.8,0.1,1.3,0.1c0.7,0,1.3-0.1,1.9-0.2c0.6-0.2,1-0.4,1.4-0.7
	c0.4-0.3,0.7-0.7,0.9-1.1c0.2-0.4,0.3-0.9,0.3-1.5c0-0.5-0.1-1-0.3-1.4c-0.2-0.4-0.4-0.8-0.8-1.1s-0.8-0.6-1.3-0.9
	c-0.5-0.3-1.1-0.5-1.7-0.7c-0.3-0.1-0.7-0.2-0.9-0.3c-0.3-0.1-0.5-0.2-0.7-0.4c-0.2-0.1-0.3-0.3-0.4-0.4s-0.2-0.3-0.2-0.5
	s0-0.3,0.1-0.5c0.1-0.1,0.2-0.3,0.3-0.4s0.3-0.2,0.5-0.3S61.3,7,61.5,7c0.3,0,0.5,0,0.7,0.1s0.4,0.2,0.5,0.3s0.2,0.3,0.3,0.5
	c0.1,0.2,0.1,0.4,0.1,0.6H66c0-0.6-0.1-1.1-0.3-1.6c-0.2-0.5-0.5-0.9-0.9-1.2s-0.9-0.6-1.4-0.8c-0.6-0.2-1.2-0.3-1.8-0.3
	c-0.7,0-1.3,0.1-1.9,0.2c-0.6,0.2-1.1,0.4-1.5,0.7s-0.7,0.7-1,1.1S56.8,7.5,56.8,8c0,0.6,0.1,1,0.3,1.4s0.5,0.8,0.9,1.1
	s0.8,0.6,1.3,0.8s1,0.4,1.6,0.6c0.5,0.2,0.8,0.3,1.1,0.4c0.3,0.1,0.5,0.3,0.7,0.4S63,13,63,13.1c0.1,0.2,0.1,0.3,0.1,0.5
	s0,0.3-0.1,0.5C63,14.6,62.9,14.7,62.7,14.8z"/>
<polygon class="st0" points="76.4,7.2 76.4,4.9 67.9,4.9 67.9,17.2 76.4,17.2 76.4,14.9 70.9,14.9 70.9,12 75.5,12 75.5,9.8 
	70.9,9.8 70.9,7.2 "/>
<rect x="18.1" y="18" class="st1" width="58.3" height="4.6"/>
<rect x="2.4" y="18" class="st1" width="11.3" height="4.6"/>
<text transform="matrix(0.8097 0 0 1 75.666 4.2021)" class="st0 st2 st3">TM</text>
</svg>
